<svg xmlns="http://www.w3.org/2000/svg" viewBox="0 0 512 512" role="img" aria-labelledby="iconTitle iconDesc">
  <title id="iconTitle">Acefluento icon</title>
  <desc id="iconDesc">Acefluento abstract red mark with a white A.</desc>
  <defs>
    <linearGradient id="iconRed" x1="0%" y1="0%" x2="100%" y2="100%">
      <stop offset="0%" stop-color="#FF4D5A" />
      <stop offset="100%" stop-color="#C81E37" />
    </linearGradient>
    <linearGradient id="iconDark" x1="0%" y1="0%" x2="100%" y2="100%">
      <stop offset="0%" stop-color="#0F172A" />
      <stop offset="100%" stop-color="#111827" />
    </linearGradient>
  </defs>

  <rect x="24" y="24" width="464" height="464" rx="96" fill="url(#iconDark)" />
  <path d="M256 92C192 92 142 142 142 206C142 251 165 288 201 312L166 405C161 419 171 434 186 434H326C341 434 351 419 346 405L311 312C347 288 370 251 370 206C370 142 320 92 256 92Z" fill="url(#iconRed)" />
  <path d="M256 165L299 286H273L261 253H245L233 286H207L250 165H256ZM253 210L244 232H262L253 210Z" fill="#FFFFFF" />
</svg>
