<svg xmlns="http://www.w3.org/2000/svg" width="1200" height="630" viewBox="0 0 1200 630" role="img" aria-labelledby="ogTitle ogDesc">
  <title id="ogTitle">Acefluento social share image</title>
  <desc id="ogDesc">Acefluento branding and service positioning for web, SEO, and Google Ads.</desc>
  <defs>
    <linearGradient id="bg" x1="0%" y1="0%" x2="100%" y2="100%">
      <stop offset="0%" stop-color="#020617" />
      <stop offset="100%" stop-color="#0F172A" />
    </linearGradient>
    <linearGradient id="red" x1="0%" y1="0%" x2="100%" y2="100%">
      <stop offset="0%" stop-color="#FF4D5A" />
      <stop offset="100%" stop-color="#C81E37" />
    </linearGradient>
  </defs>

  <rect width="1200" height="630" fill="url(#bg)"/>
  <circle cx="980" cy="-70" r="260" fill="#1E293B" opacity="0.35"/>
  <circle cx="-90" cy="690" r="300" fill="#1E293B" opacity="0.28"/>

  <g transform="translate(95,135)">
    <rect width="170" height="170" rx="26" fill="#0B1220" />
    <path d="M85 25C62 25 43 44 43 67C43 82 51 96 65 104L53 140C51 145 54 149 59 149H111C116 149 119 145 117 140L105 104C119 96 127 82 127 67C127 44 108 25 85 25Z" fill="url(#red)" />
    <path d="M85 53L100 97H90L86 84H81L77 97H68L84 53H85ZM84 70L80 78H88L84 70Z" fill="#FFFFFF" />
  </g>

  <text x="300" y="235" fill="#F8FAFC" font-family="Inter, Arial, sans-serif" font-size="84" font-weight="800">Acefluento</text>
  <text x="95" y="365" fill="#E2E8F0" font-family="Inter, Arial, sans-serif" font-size="52" font-weight="700">Websites, SEO & Google Ads</text>
  <text x="95" y="430" fill="#94A3B8" font-family="Inter, Arial, sans-serif" font-size="34" font-weight="500">Built to turn attention into qualified leads.</text>
  <rect x="95" y="472" width="430" height="8" rx="4" fill="url(#red)"/>
</svg>
